<?xml version="1.0" encoding="UTF-8" standalone="no"?>
<!-- Created with Inkscape (http://www.inkscape.org/) -->

<svg
   xmlns:dc="http://purl.org/dc/elements/1.1/"
   xmlns:cc="http://creativecommons.org/ns#"
   xmlns:rdf="http://www.w3.org/1999/02/22-rdf-syntax-ns#"
   xmlns:svg="http://www.w3.org/2000/svg"
   xmlns="http://www.w3.org/2000/svg"
   xmlns:sodipodi="http://sodipodi.sourceforge.net/DTD/sodipodi-0.dtd"
   xmlns:inkscape="http://www.inkscape.org/namespaces/inkscape"
   width="349.1875"
   height="268.1875"
   id="svg3061"
   version="1.1"
   inkscape:version="0.48.2 r9819"
   sodipodi:docname="logo-design.svg"
   inkscape:export-filename="/wg/Projects/opendatacamp/opendatacamp/2012/website/img/logo-design.png"
   inkscape:export-xdpi="45.939999"
   inkscape:export-ydpi="45.939999">
  <defs
     id="defs3" />
  <sodipodi:namedview
     inkscape:document-units="mm"
     id="base"
     pagecolor="#ffffff"
     bordercolor="#666666"
     borderopacity="1.0"
     inkscape:pageopacity="0.0"
     inkscape:pageshadow="2"
     inkscape:zoom="1.4"
     inkscape:cx="643.68049"
     inkscape:cy="-194.37912"
     inkscape:current-layer="layer1"
     showgrid="false"
     units="mm"
     fit-margin-top="0"
     fit-margin-left="0"
     fit-margin-right="0"
     fit-margin-bottom="0"
     inkscape:window-width="1366"
     inkscape:window-height="713"
     inkscape:window-x="0"
     inkscape:window-y="26"
     inkscape:window-maximized="1" />
  <metadata
     id="metadata4">
    <rdf:RDF>
      <cc:Work
         rdf:about="">
        <dc:format>image/svg+xml</dc:format>
        <dc:type
           rdf:resource="http://purl.org/dc/dcmitype/StillImage" />
        <dc:title></dc:title>
      </cc:Work>
    </rdf:RDF>
  </metadata>
  <g
     inkscape:label="Layer 1"
     inkscape:groupmode="layer"
     id="layer1"
     transform="translate(-225.40625,-386.84375)">
    <rect
       inkscape:export-ydpi="75.669998"
       inkscape:export-xdpi="75.669998"
       inkscape:export-filename="/wg/Projects/opendatacamp/opendatacamp/2012/website/img/logo.png"
       y="383.2923"
       x="222.12389"
       height="276.02463"
       width="356.79544"
       id="rect3964"
       style="fill:#ffffff;fill-opacity:1;stroke:none" />
    <rect
       style="fill:#cccccc;fill-opacity:0.26940638;stroke:none;stroke-width:3.62202119999999983;stroke-miterlimit:4;stroke-opacity:1;stroke-dasharray:3.62202108000000012, 3.62202108000000012;stroke-dashoffset:0"
       id="rect3962"
       width="356.79544"
       height="276.02463"
       x="866.40961"
       y="371.86374"
       inkscape:export-filename="/wg/Projects/opendatacamp/opendatacamp/2012/website/img/logo.png"
       inkscape:export-xdpi="75.669998"
       inkscape:export-ydpi="75.669998" />
    <g
       transform="matrix(0.54124178,0,0,0.54124178,-690.42768,390.53386)"
       id="g3021">
      <g
         id="g3023"
         transform="translate(23.494825,0)">
        <path
           transform="matrix(-7.52338,-1.547912e-8,-4.5268666e-8,-7.5372133,-6318.6776,4352.2773)"
           d="m -1081.0714,552.36218 c 0,12.62365 -10.2335,22.85715 -22.8572,22.85715 -12.6236,0 -22.8571,-10.2335 -22.8571,-22.85715 0,-12.62365 10.2335,-22.85714 22.8571,-22.85714 12.6237,0 22.8572,10.23349 22.8572,22.85714 z"
           sodipodi:ry="22.857143"
           sodipodi:rx="22.857143"
           sodipodi:cy="552.36218"
           sodipodi:cx="-1103.9286"
           id="path3025"
           style="fill:#1a1a1a;stroke:none"
           sodipodi:type="arc" />
        <path
           sodipodi:type="arc"
           style="fill:#ffffff;stroke:none"
           id="path3027"
           sodipodi:cx="-1103.9286"
           sodipodi:cy="552.36218"
           sodipodi:rx="22.857143"
           sodipodi:ry="22.857143"
           d="m -1081.0714,552.36218 c 0,12.62365 -10.2335,22.85715 -22.8572,22.85715 -12.6236,0 -22.8571,-10.2335 -22.8571,-22.85715 0,-12.62365 10.2335,-22.85714 22.8571,-22.85714 12.6237,0 22.8572,10.23349 22.8572,22.85714 z"
           transform="matrix(-6.495539,-1.5553074e-7,1.6787937e-7,-6.364649,-5144.8646,3741.2594)" />
        <g
           style="fill:#1a1a1a"
           transform="matrix(7.1985093,0,0,7.2117453,10129.933,-3744.3368)"
           id="g3029">
          <path
             inkscape:connector-curvature="0"
             style="font-size:medium;font-style:normal;font-variant:normal;font-weight:normal;font-stretch:normal;text-indent:0;text-align:start;text-decoration:none;line-height:normal;letter-spacing:normal;word-spacing:normal;text-transform:none;direction:ltr;block-progression:tb;writing-mode:lr-tb;text-anchor:start;baseline-shift:baseline;color:#000000;fill:#1a1a1a;fill-opacity:1;fill-rule:nonzero;stroke:none;stroke-width:17.36865997;marker:none;visibility:visible;display:inline;overflow:visible;enable-background:accumulate;font-family:Sans;-inkscape-font-specification:Sans"
             d="m -1127.5938,542.4375 0,7.6875 c -1.3681,-0.69546 -2.9031,-1.09375 -4.5312,-1.09375 -5.5491,0 -10.125,4.54464 -10.125,10.09375 0,5.54911 4.5759,10.125 10.125,10.125 5.5491,0 10.0938,-4.57589 10.0938,-10.125 0,-0.48766 -0.026,-0.96747 -0.094,-1.4375 l 0,-15.25 -5.4688,0 z m -4.5312,12.15625 c 2.5412,0 4.5312,1.99004 4.5312,4.53125 0,2.5412 -1.99,4.53125 -4.5312,4.53125 -2.5412,0 -4.5312,-1.99005 -4.5312,-4.53125 0,-2.54121 1.99,-4.53125 4.5312,-4.53125 z"
             id="path3031" />
          <path
             style="font-size:medium;font-style:normal;font-variant:normal;font-weight:normal;font-stretch:normal;text-indent:0;text-align:start;text-decoration:none;line-height:normal;letter-spacing:normal;word-spacing:normal;text-transform:none;direction:ltr;block-progression:tb;writing-mode:lr-tb;text-anchor:start;baseline-shift:baseline;color:#000000;fill:#1a1a1a;fill-opacity:1;fill-rule:nonzero;stroke:none;stroke-width:5.56566095;marker:none;visibility:visible;display:inline;overflow:visible;enable-background:accumulate;font-family:Sans;-inkscape-font-specification:Sans"
             d="m -1111.1562,547.9375 c -1.1165,-0.0868 -2.2723,0.009 -3.4063,0.3125 -5.36,1.4362 -8.5924,7.01501 -7.1563,12.375 1.4363,5.35999 7.0151,8.59247 12.375,7.15625 0.2057,-0.055 0.4262,-0.12074 0.625,-0.1875 l -1.7812,-5.28125 c -0.09,0.0302 -0.1883,0.0689 -0.2812,0.0937 -2.4545,0.65768 -4.9048,-0.7641 -5.5626,-3.21875 -0.6576,-2.45467 0.7642,-4.9048 3.2188,-5.5625 1.0386,-0.27829 2.0614,-0.1715 2.9688,0.21875 l 2.1874,-5.125 c -1.0055,-0.43248 -2.071,-0.69445 -3.1874,-0.78125 z"
             id="path3033"
             inkscape:connector-curvature="0" />
        </g>
      </g>
      <text
         sodipodi:linespacing="125%"
         id="text3035"
         y="448.38043"
         x="2011.697"
         style="font-size:78.29330444px;font-style:normal;font-variant:normal;font-weight:bold;font-stretch:normal;text-align:center;line-height:125%;letter-spacing:0px;word-spacing:0px;writing-mode:lr-tb;text-anchor:middle;fill:#1a1a1a;fill-opacity:1;stroke:none;font-family:Ubuntu;-inkscape-font-specification:Ubuntu Bold"
         xml:space="preserve"><tspan
           y="448.38043"
           x="2011.697"
           id="tspan3037"
           sodipodi:role="line">Open DataCamp</tspan></text>
    </g>
    <path
       style="fill:#1a1a1a;stroke:none"
       d="M 816.40625 5.59375 C 765.00315 5.59375 723.3125 47.34613 723.3125 98.84375 C 723.3125 147.27071 760.1726 187.05031 807.3125 191.625 C 807.12133 191.54871 806.94044 191.45269 806.75 191.375 C 808.78906 191.70696 810.87429 191.90625 813 191.90625 C 834.62 191.90625 852.3125 174.03483 852.3125 152.375 C 852.3125 151.69831 852.30965 151.04361 852.28125 150.375 C 852.43158 152.98365 852.83185 155.63479 853.53125 158.25 C 859.12735 179.17163 880.8671 191.7935 901.75 186.1875 C 902.5514 185.97282 903.4129 185.69809 904.1875 185.4375 L 897.25 164.84375 C 896.8993 164.96163 896.51825 165.0907 896.15625 165.1875 C 886.59315 167.75462 877.0628 162.20623 874.5 152.625 C 871.9379 143.04369 877.46785 133.47345 887.03125 130.90625 C 891.07785 129.82001 895.05835 130.25799 898.59375 131.78125 L 907.125 111.78125 C 903.2074 110.09315 899.0372 109.05755 894.6875 108.71875 C 890.3375 108.37995 885.8558 108.75282 881.4375 109.9375 C 863.43843 114.7692 851.59503 131.60682 852.25 149.5625 C 852.19156 148.62702 852.1012 147.69858 851.96875 146.78125 L 851.96875 87.25 L 830.65625 87.25 L 830.65625 117.25 C 825.32595 114.53541 819.3433 113 813 113 C 791.38 113 773.5625 130.71517 773.5625 152.375 C 773.5625 159.82057 775.66931 166.83588 779.3125 172.8125 C 765.64598 158.70273 757.21875 139.67298 757.21875 118.6875 C 757.21875 75.20137 793.21335 39.9375 837.59375 39.9375 C 867.63125 39.9375 893.80395 56.11096 907.59375 80.03125 C 898.90355 37.55605 861.37345 5.59375 816.40625 5.59375 z M 813 134.6875 C 822.9009 134.6875 830.65625 142.4559 830.65625 152.375 C 830.65625 162.29406 822.9009 170.0625 813 170.0625 C 803.0991 170.0625 795.34375 162.29406 795.34375 152.375 C 795.34375 142.4559 803.0991 134.6875 813 134.6875 z M 669.84375 209.1875 C 667.89447 209.18752 666.02976 209.50652 664.25 210.15625 C 662.49843 210.80604 660.94978 211.79426 659.59375 213.09375 C 658.26598 214.39329 657.19728 215.98525 656.40625 217.90625 C 655.61523 219.79905 655.21875 222.01698 655.21875 224.53125 C 655.21875 227.04555 655.61223 229.26648 656.375 231.1875 C 657.13777 233.08028 658.17223 234.66924 659.5 235.96875 C 660.82778 237.24002 662.37643 238.194 664.15625 238.84375 C 665.93602 239.49351 667.83796 239.8125 669.84375 239.8125 C 671.90599 239.8125 673.81393 239.49351 675.59375 238.84375 C 677.40171 238.194 678.95048 237.24002 680.25 235.96875 C 681.54952 234.66924 682.57793 233.08028 683.3125 231.1875 C 684.07522 229.26648 684.4687 227.04555 684.46875 224.53125 C 684.4687 222.01698 684.07522 219.79905 683.3125 217.90625 C 682.54967 215.98525 681.51528 214.39329 680.1875 213.09375 C 678.85973 211.79426 677.31102 210.80604 675.53125 210.15625 C 673.75143 209.50652 671.84948 209.18752 669.84375 209.1875 z M 885.15625 209.1875 C 883.00925 209.18752 881.0238 209.50952 879.1875 210.1875 C 877.3513 210.86554 875.7652 211.89101 874.4375 213.21875 C 873.1097 214.51829 872.0752 216.11025 871.3125 218.03125 C 870.5497 219.92405 870.15625 222.10173 870.15625 224.53125 C 870.15625 229.41858 871.3889 233.18821 873.875 235.84375 C 876.3893 238.49928 880.0382 239.8125 884.8125 239.8125 C 887.0442 239.8125 889.02375 239.60826 890.71875 239.15625 C 892.41375 238.70425 893.72395 238.19001 894.65625 237.625 L 892.84375 232.3125 C 892.47645 232.48201 892.04575 232.67726 891.59375 232.875 C 891.14175 233.07276 890.62455 233.268 890.03125 233.4375 C 889.43795 233.57875 888.7627 233.6995 888 233.8125 C 887.2372 233.9255 886.36675 233.96875 885.40625 233.96875 C 883.88075 233.96875 882.60475 233.73026 881.53125 233.25 C 880.45775 232.7415 879.58425 232.06627 878.90625 231.21875 C 878.25645 230.37125 877.7482 229.37703 877.4375 228.21875 C 877.1549 227.03225 877.03125 225.76229 877.03125 224.40625 C 877.03125 222.71124 877.26675 221.24903 877.71875 220.0625 C 878.17075 218.876 878.73425 217.92203 879.46875 217.1875 C 880.23145 216.42476 881.102 215.87027 882.0625 215.53125 C 883.0512 215.19227 884.0454 215.03128 885.0625 215.03125 C 886.588 215.03128 887.96975 215.19227 889.15625 215.53125 C 890.37105 215.87027 891.4084 216.30102 892.3125 216.78125 L 894.21875 211.4375 C 893.99265 211.29628 893.6335 211.09803 893.125 210.84375 C 892.6165 210.58952 891.98145 210.35103 891.21875 210.125 C 890.45595 209.87078 889.5795 209.63828 888.5625 209.46875 C 887.5455 209.27102 886.39925 209.18752 885.15625 209.1875 z M 784.4375 209.53125 C 783.2509 209.53128 781.82305 209.57453 780.15625 209.6875 C 778.51775 209.77228 776.963 209.96753 775.4375 210.25 L 775.4375 238.84375 C 776.963 239.1545 778.51175 239.3527 780.09375 239.4375 C 781.67575 239.5505 783.0634 239.625 784.25 239.625 C 786.849 239.625 789.19065 239.309 791.28125 238.6875 C 793.37175 238.06599 795.1217 237.11802 796.5625 235.875 C 798.0315 234.63198 799.17765 233.08029 799.96875 231.1875 C 800.75965 229.29474 801.15615 227.07379 801.15625 224.53125 C 801.15615 221.87572 800.75965 219.5803 799.96875 217.6875 C 799.17765 215.79475 798.0315 214.24604 796.5625 213.03125 C 795.0934 211.81651 793.34345 210.94003 791.28125 210.375 C 789.24715 209.81002 786.9517 209.53128 784.4375 209.53125 z M 835.71875 210.375 L 829.40625 211.375 L 829.40625 230.125 C 829.40625 231.56578 829.52705 232.87599 829.78125 234.0625 C 830.06375 235.24902 830.572 236.2775 831.25 237.125 C 831.928 237.94427 832.8075 238.58225 833.9375 239.0625 C 835.0675 239.51451 836.49555 239.75 838.21875 239.75 C 839.57485 239.75 840.72395 239.63225 841.65625 239.40625 C 842.58845 239.18024 843.45605 238.9045 844.21875 238.59375 L 843.3125 233.6875 C 842.7193 233.91351 842.047 234.0775 841.3125 234.21875 C 840.6062 234.33176 839.928 234.40625 839.25 234.40625 C 837.8375 234.40625 836.88645 234.00976 836.40625 233.21875 C 835.95425 232.42774 835.71875 231.35902 835.71875 230.03125 L 835.71875 222.1875 L 843.3125 222.1875 L 843.3125 216.9375 L 835.71875 216.9375 L 835.71875 210.375 z M 669.84375 215 C 671.05851 215.00003 672.13321 215.20427 673.09375 215.65625 C 674.08249 216.10829 674.91269 216.7775 675.5625 217.625 C 676.24046 218.44428 676.75472 219.43851 677.09375 220.625 C 677.46098 221.78329 677.625 223.09049 677.625 224.53125 C 677.625 225.97203 677.46098 227.27925 677.09375 228.4375 C 676.75472 229.59578 676.24046 230.59 675.5625 231.4375 C 674.91269 232.25677 674.08249 232.89176 673.09375 233.34375 C 672.13321 233.79576 671.05851 234.03125 669.84375 234.03125 C 668.60068 234.03125 667.49174 233.79576 666.53125 233.34375 C 665.57071 232.89176 664.74052 232.25677 664.0625 231.4375 C 663.41274 230.59 662.92979 229.59578 662.5625 228.4375 C 662.22352 227.27925 662.03125 225.97203 662.03125 224.53125 C 662.03125 223.11874 662.22352 221.81454 662.5625 220.65625 C 662.92979 219.46976 663.41274 218.47553 664.0625 217.65625 C 664.74052 216.80876 665.57071 216.17078 666.53125 215.71875 C 667.49174 215.23852 668.60068 215.00003 669.84375 215 z M 784.78125 215.15625 C 788.08645 215.15627 790.50565 215.94925 792.03125 217.53125 C 793.55675 219.1133 794.3124 221.45197 794.3125 224.53125 C 794.3124 227.4693 793.51645 229.77073 791.90625 231.4375 C 790.32425 233.10428 787.89905 233.93751 784.59375 233.9375 L 783.09375 233.9375 C 782.69825 233.9093 782.34195 233.87205 782.03125 233.84375 L 782.03125 215.28125 C 782.45495 215.22485 782.92595 215.18752 783.40625 215.1875 C 783.88645 215.1592 784.32915 215.15627 784.78125 215.15625 z M 724.6875 216.34375 C 723.33147 216.34377 722.01827 216.61651 720.71875 217.125 C 719.44748 217.63353 718.3013 218.35501 717.3125 219.34375 C 716.32376 220.33254 715.52775 221.59649 714.90625 223.09375 C 714.31299 224.56278 714.03125 226.27248 714.03125 228.25 C 714.03125 229.88853 714.23545 231.43124 714.6875 232.84375 C 715.16774 234.25628 715.91451 235.48599 716.875 236.53125 C 717.86374 237.54827 719.06226 238.34424 720.53125 238.9375 C 722.02854 239.53076 723.80671 239.8125 725.8125 239.8125 C 726.60352 239.8125 727.39648 239.7722 728.1875 239.6875 C 728.97853 239.60274 729.69698 239.485 730.375 239.34375 C 731.08121 239.23075 731.71619 239.10701 732.28125 238.9375 C 732.84625 238.768 733.28596 238.607 733.625 238.4375 L 732.78125 233.3125 C 732.07498 233.62326 731.16126 233.86776 730.03125 234.09375 C 728.9295 234.29149 727.81451 234.40625 726.65625 234.40625 C 724.84818 234.40625 723.386 234.01277 722.3125 233.25 C 721.23894 232.48725 720.64126 231.45578 720.5 230.15625 L 734.8125 230.15625 C 734.8407 229.81726 734.87805 229.45502 734.90625 229.03125 C 734.93435 228.57926 734.9687 228.14851 734.96875 227.78125 C 734.9687 224.02396 734.02377 221.2023 732.1875 219.28125 C 730.35118 217.33199 727.85149 216.34377 724.6875 216.34375 z M 814.21875 216.34375 C 813.48425 216.34377 812.7345 216.38405 812 216.46875 C 811.2938 216.52527 810.61855 216.60577 809.96875 216.71875 C 809.31895 216.80353 808.72135 216.92128 808.15625 217.0625 C 807.61945 217.17553 807.1798 217.29327 806.8125 217.40625 L 807.59375 222.5 C 808.35645 222.21751 809.2672 221.98502 810.3125 221.84375 C 811.3577 221.6743 812.4265 221.59376 813.5 221.59375 C 815.1103 221.59376 816.2253 221.91276 816.875 222.5625 C 817.5248 223.21228 817.84375 224.08274 817.84375 225.15625 L 817.84375 225.75 C 817.44825 225.63701 816.93095 225.5565 816.28125 225.5 C 815.65975 225.41527 814.9443 225.37502 814.125 225.375 C 812.9102 225.37502 811.755 225.49577 810.625 225.75 C 809.495 225.97602 808.46945 226.3695 807.59375 226.90625 C 806.71795 227.44302 806.00545 228.1585 805.46875 229.0625 C 804.96025 229.96652 804.71875 231.07549 804.71875 232.375 C 804.71875 233.73102 804.95425 234.88024 805.40625 235.8125 C 805.85825 236.74477 806.49625 237.5005 807.34375 238.09375 C 808.19125 238.65876 809.18545 239.05825 810.34375 239.3125 C 811.53025 239.56675 812.8717 239.6875 814.3125 239.6875 C 816.6008 239.6875 818.54595 239.56375 820.15625 239.28125 C 821.76655 239.02699 823.00215 238.79151 823.90625 238.59375 L 823.90625 225.46875 C 823.90615 224.08449 823.7483 222.81754 823.4375 221.6875 C 823.1268 220.55751 822.60645 219.60353 821.84375 218.8125 C 821.10915 218.0215 820.1179 217.39252 818.875 216.96875 C 817.6319 216.54501 816.08335 216.34377 814.21875 216.34375 z M 855.59375 216.34375 C 854.85915 216.34377 854.14065 216.38405 853.40625 216.46875 C 852.69995 216.52527 851.99355 216.60577 851.34375 216.71875 C 850.69405 216.80353 850.09625 216.92128 849.53125 217.0625 C 848.99445 217.17553 848.5548 217.29327 848.1875 217.40625 L 849 222.5 C 849.7627 222.21751 850.6423 221.98502 851.6875 221.84375 C 852.7328 221.6743 853.8015 221.59376 854.875 221.59375 C 856.4853 221.59376 857.6003 221.91276 858.25 222.5625 C 858.8998 223.21228 859.25 224.08274 859.25 225.15625 L 859.25 225.75 C 858.8545 225.63701 858.30595 225.5565 857.65625 225.5 C 857.03475 225.41527 856.3193 225.37502 855.5 225.375 C 854.2852 225.37502 853.13 225.49577 852 225.75 C 850.87 225.97602 849.8757 226.3695 849 226.90625 C 848.1242 227.44302 847.4118 228.1585 846.875 229.0625 C 846.3665 229.96652 846.09375 231.07549 846.09375 232.375 C 846.09375 233.73102 846.32935 234.88024 846.78125 235.8125 C 847.23325 236.74477 847.87125 237.5005 848.71875 238.09375 C 849.56635 238.65876 850.5917 239.05825 851.75 239.3125 C 852.9365 239.56675 854.2467 239.6875 855.6875 239.6875 C 857.9758 239.6875 859.92095 239.56375 861.53125 239.28125 C 863.14145 239.02699 864.4085 238.79151 865.3125 238.59375 L 865.3125 225.46875 C 865.3124 224.08449 865.15445 222.81754 864.84375 221.6875 C 864.53295 220.55751 863.98145 219.60353 863.21875 218.8125 C 862.48425 218.0215 861.493 217.39252 860.25 216.96875 C 859.007 216.54501 857.45825 216.34377 855.59375 216.34375 z M 906.90625 216.34375 C 906.17175 216.34377 905.45325 216.38405 904.71875 216.46875 C 904.01245 216.52527 903.3373 216.60577 902.6875 216.71875 C 902.0378 216.80353 901.40875 216.92128 900.84375 217.0625 C 900.30695 217.17553 899.8672 217.29327 899.5 217.40625 L 900.3125 222.5 C 901.0753 222.21751 901.9547 221.98502 903 221.84375 C 904.0452 221.6743 905.114 221.59376 906.1875 221.59375 C 907.7978 221.59376 908.94395 221.91276 909.59375 222.5625 C 910.24345 223.21228 910.5625 224.08274 910.5625 225.15625 L 910.5625 225.75 C 910.167 225.63701 909.6498 225.5565 909 225.5 C 908.3785 225.41527 907.6317 225.37502 906.8125 225.375 C 905.5977 225.37502 904.4425 225.49577 903.3125 225.75 C 902.1825 225.97602 901.1882 226.3695 900.3125 226.90625 C 899.4367 227.44302 898.7243 228.1585 898.1875 229.0625 C 897.679 229.96652 897.40625 231.07549 897.40625 232.375 C 897.40625 233.73102 897.64175 234.88024 898.09375 235.8125 C 898.54575 236.74477 899.18385 237.5005 900.03125 238.09375 C 900.87885 238.65876 901.9042 239.05825 903.0625 239.3125 C 904.249 239.56675 905.5593 239.6875 907 239.6875 C 909.2883 239.6875 911.23345 239.56375 912.84375 239.28125 C 914.45395 239.02699 915.721 238.79151 916.625 238.59375 L 916.625 225.46875 C 916.625 224.08449 916.46695 222.81754 916.15625 221.6875 C 915.84545 220.55751 915.29405 219.60353 914.53125 218.8125 C 913.79675 218.0215 912.8055 217.39252 911.5625 216.96875 C 910.3195 216.54501 908.77075 216.34377 906.90625 216.34375 z M 698.625 216.4375 C 697.86223 216.43753 697.03503 216.4778 696.1875 216.5625 C 695.36822 216.61903 694.56928 216.69953 693.75 216.8125 C 692.95898 216.92553 692.20322 217.08052 691.46875 217.25 C 690.73423 217.39128 690.065 217.51802 689.5 217.6875 L 689.5 247.0625 L 695.8125 247.0625 L 695.8125 238.6875 C 696.51871 238.99825 697.26847 239.23674 698.03125 239.40625 C 698.79402 239.5758 699.59296 239.65625 700.46875 239.65625 C 702.05079 239.65625 703.47269 239.37751 704.6875 238.8125 C 705.90221 238.24749 706.89947 237.45452 707.71875 236.4375 C 708.53797 235.42049 709.16996 234.19378 709.59375 232.78125 C 710.01749 231.36874 710.21869 229.81703 710.21875 228.09375 C 710.21869 226.31399 709.97424 224.69079 709.4375 223.25 C 708.929 221.80925 708.17624 220.61378 707.1875 219.625 C 706.19871 218.608 704.97203 217.81803 703.53125 217.28125 C 702.09046 216.71626 700.46127 216.43753 698.625 216.4375 z M 749.3125 216.4375 C 747.44792 216.43753 745.66376 216.56127 743.96875 216.84375 C 742.27374 217.09803 740.886 217.37677 739.8125 217.6875 L 739.8125 239.21875 L 746.125 239.21875 L 746.125 222.03125 C 746.52048 221.97472 746.9915 221.93455 747.5 221.90625 C 748.0085 221.84985 748.4855 221.81252 748.9375 221.8125 C 750.40653 221.81252 751.40075 222.24625 751.9375 223.09375 C 752.47425 223.94128 752.75 225.37223 752.75 227.40625 L 752.75 239.21875 L 759.0625 239.21875 L 759.0625 226.65625 C 759.0625 225.13074 758.90448 223.74303 758.59375 222.5 C 758.28297 221.257 757.76576 220.18529 757.03125 219.28125 C 756.29673 218.37726 755.30252 217.66778 754.03125 217.1875 C 752.78823 216.67901 751.20522 216.43753 749.3125 216.4375 z M 931.46875 216.4375 C 930.64945 216.43753 929.81625 216.4778 928.96875 216.5625 C 928.12125 216.61903 927.28805 216.70252 926.46875 216.84375 C 925.67785 216.95678 924.922 217.11177 924.1875 217.28125 C 923.4812 217.42252 922.8492 217.54628 922.3125 217.6875 L 922.3125 239.21875 L 928.625 239.21875 L 928.625 222.03125 C 929.0205 221.97472 929.4513 221.93455 929.875 221.90625 C 930.2988 221.84985 930.69825 221.81252 931.09375 221.8125 C 932.36505 221.81252 933.2414 222.24625 933.75 223.09375 C 934.2867 223.94128 934.5625 225.37223 934.5625 227.40625 L 934.5625 239.21875 L 940.875 239.21875 L 940.875 227.0625 C 940.875 226.24326 940.8695 225.48753 940.8125 224.78125 C 940.756 224.04676 940.60405 223.33728 940.40625 222.6875 C 940.80175 222.43327 941.31295 222.23202 941.90625 222.0625 C 942.52775 221.89305 943.00465 221.81252 943.34375 221.8125 C 944.61495 221.81252 945.4915 222.24625 946 223.09375 C 946.5367 223.94128 946.8125 225.37223 946.8125 227.40625 L 946.8125 239.21875 L 953.125 239.21875 L 953.125 226.65625 C 953.125 225.13074 953.0042 223.74303 952.75 222.5 C 952.4957 221.257 952.02175 220.18529 951.34375 219.28125 C 950.66575 218.37726 949.75205 217.66778 948.59375 217.1875 C 947.46375 216.67901 945.99855 216.43753 944.21875 216.4375 C 943.22995 216.43753 942.15525 216.60152 940.96875 216.96875 C 939.81045 217.33603 938.779 217.85026 937.875 218.5 C 937.2252 217.93501 936.392 217.45803 935.375 217.0625 C 934.3863 216.63877 933.07905 216.43753 931.46875 216.4375 z M 967.9375 216.4375 C 967.1748 216.43753 966.37875 216.4778 965.53125 216.5625 C 964.71205 216.61903 963.8818 216.69953 963.0625 216.8125 C 962.2715 216.92553 961.51585 217.08052 960.78125 217.25 C 960.04675 217.39128 959.3775 217.51802 958.8125 217.6875 L 958.8125 247.0625 L 965.125 247.0625 L 965.125 238.6875 C 965.8313 238.99825 966.58095 239.23674 967.34375 239.40625 C 968.10645 239.5758 968.9367 239.65625 969.8125 239.65625 C 971.3944 239.65625 972.7853 239.37751 974 238.8125 C 975.2148 238.24749 976.21195 237.45452 977.03125 236.4375 C 977.85045 235.42049 978.48245 234.19378 978.90625 232.78125 C 979.32995 231.36874 979.53125 229.81703 979.53125 228.09375 C 979.53125 226.31399 979.2867 224.69079 978.75 223.25 C 978.2415 221.80925 977.4887 220.61378 976.5 219.625 C 975.5112 218.608 974.28445 217.81803 972.84375 217.28125 C 971.40295 216.71626 969.7738 216.43753 967.9375 216.4375 z M 724.78125 221.5625 C 725.51571 221.56252 726.11345 221.68327 726.59375 221.9375 C 727.10225 222.19178 727.53297 222.51076 727.84375 222.90625 C 728.18273 223.30178 728.42124 223.77275 728.5625 224.28125 C 728.73197 224.78976 728.81565 225.30701 728.84375 225.84375 L 720.5 225.84375 C 720.58476 225.30701 720.70549 224.78976 720.875 224.28125 C 721.07272 223.7445 721.34847 223.27052 721.6875 222.875 C 722.02648 222.47951 722.4602 222.16353 722.96875 221.9375 C 723.47725 221.68327 724.07498 221.56252 724.78125 221.5625 z M 698.5625 221.8125 C 700.28576 221.81252 701.59296 222.40725 702.46875 223.59375 C 703.34448 224.75204 703.78125 226.30074 703.78125 228.25 C 703.78125 232.28982 702.27578 234.31251 699.28125 234.3125 C 698.63149 234.31251 697.99351 234.23201 697.34375 234.0625 C 696.72224 233.893 696.20799 233.69175 695.8125 233.4375 L 695.8125 222.03125 C 696.12323 221.97472 696.5197 221.93455 697 221.90625 C 697.48025 221.84985 697.9975 221.81252 698.5625 221.8125 z M 967.90625 221.8125 C 969.62955 221.81252 970.90545 222.40725 971.78125 223.59375 C 972.65695 224.75204 973.09365 226.30074 973.09375 228.25 C 973.09365 232.28982 971.6196 234.31251 968.625 234.3125 C 967.9752 234.31251 967.30595 234.23201 966.65625 234.0625 C 966.03475 233.893 965.5205 233.69175 965.125 233.4375 L 965.125 222.03125 C 965.4357 221.97472 965.8323 221.93455 966.3125 221.90625 C 966.7928 221.84985 967.34125 221.81252 967.90625 221.8125 z M 815.3125 229.625 C 815.7362 229.6251 816.21025 229.631 816.71875 229.6875 C 817.22725 229.74401 817.58955 229.8185 817.84375 229.875 L 817.84375 234.65625 C 817.50475 234.71278 817.065 234.75305 816.5 234.78125 C 815.935 234.80955 815.34025 234.81251 814.71875 234.8125 C 813.56055 234.8125 812.64665 234.64851 811.96875 234.28125 C 811.31895 233.88575 811 233.17627 811 232.1875 C 811 231.679 811.11775 231.27651 811.34375 230.9375 C 811.56975 230.5985 811.8545 230.32277 812.25 230.125 C 812.6454 229.92726 813.1165 229.8065 813.625 229.75 C 814.1617 229.66527 814.7192 229.62501 815.3125 229.625 z M 856.6875 229.625 C 857.1113 229.6251 857.58525 229.631 858.09375 229.6875 C 858.60225 229.74401 858.9957 229.8185 859.25 229.875 L 859.25 234.65625 C 858.911 234.71278 858.4399 234.75305 857.875 234.78125 C 857.3099 234.80955 856.71525 234.81251 856.09375 234.8125 C 854.93545 234.8125 854.02175 234.64851 853.34375 234.28125 C 852.69395 233.88575 852.375 233.17627 852.375 232.1875 C 852.375 231.679 852.49275 231.27651 852.71875 230.9375 C 852.94475 230.5985 853.26075 230.32277 853.65625 230.125 C 854.05175 229.92726 854.4915 229.8065 855 229.75 C 855.5368 229.66527 856.0943 229.62501 856.6875 229.625 z M 908 229.625 C 908.4237 229.6251 908.89775 229.631 909.40625 229.6875 C 909.91475 229.74401 910.3082 229.8185 910.5625 229.875 L 910.5625 234.65625 C 910.2235 234.71278 909.7525 234.75305 909.1875 234.78125 C 908.6224 234.80955 908.02775 234.81251 907.40625 234.8125 C 906.24795 234.8125 905.33425 234.64851 904.65625 234.28125 C 904.00645 233.88575 903.6875 233.17627 903.6875 232.1875 C 903.6875 231.679 903.80515 231.27651 904.03125 230.9375 C 904.25715 230.5985 904.57325 230.32277 904.96875 230.125 C 905.36425 229.92726 905.804 229.8065 906.3125 229.75 C 906.8493 229.66527 907.4067 229.62501 908 229.625 z "
       transform="translate(225.40625,386.84375)"
       id="path3117" />
    <rect
       style="fill:#ffffff;fill-opacity:0;stroke:none"
       id="rect3006"
       width="198.59842"
       height="198.59842"
       x="923.1239"
       y="697.4328"
       inkscape:export-filename="/wg/Projects/opendatacamp/opendatacamp/2012/website/img/logo-mast.png"
       inkscape:export-xdpi="99.699997"
       inkscape:export-ydpi="99.699997" />
    <g
       id="g3008"
       transform="matrix(0.54124178,0,0,0.54124178,-63.75936,693.76563)">
      <g
         transform="translate(23.494825,0)"
         id="g3010">
        <path
           style="fill:#1a1a1a;stroke:none"
           d="M 798.78125 315.96875 C 747.37815 315.96875 705.71875 357.72113 705.71875 409.21875 C 705.71875 457.64571 742.54765 497.42531 789.6875 502 C 760.32205 490.28085 739.625 462.04758 739.625 429.0625 C 739.625 385.57637 775.58832 350.3125 819.96875 350.3125 C 850.0096 350.3125 876.18018 366.4816 889.96875 390.40625 C 881.27855 347.93105 843.74846 315.96875 798.78125 315.96875 z "
           transform="matrix(1.8476031,0,0,1.8476031,510.76846,-567.06982)"
           id="path3012" />
        <g
           id="g3016"
           transform="matrix(7.1985093,0,0,7.2117453,10129.933,-3744.3368)"
           style="fill:#1a1a1a">
          <path
             id="path3018"
             d="m -1127.5938,542.4375 0,7.6875 c -1.3681,-0.69546 -2.9031,-1.09375 -4.5312,-1.09375 -5.5491,0 -10.125,4.54464 -10.125,10.09375 0,5.54911 4.5759,10.125 10.125,10.125 5.5491,0 10.0938,-4.57589 10.0938,-10.125 0,-0.48766 -0.026,-0.96747 -0.094,-1.4375 l 0,-15.25 -5.4688,0 z m -4.5312,12.15625 c 2.5412,0 4.5312,1.99004 4.5312,4.53125 0,2.5412 -1.99,4.53125 -4.5312,4.53125 -2.5412,0 -4.5312,-1.99005 -4.5312,-4.53125 0,-2.54121 1.99,-4.53125 4.5312,-4.53125 z"
             style="font-size:medium;font-style:normal;font-variant:normal;font-weight:normal;font-stretch:normal;text-indent:0;text-align:start;text-decoration:none;line-height:normal;letter-spacing:normal;word-spacing:normal;text-transform:none;direction:ltr;block-progression:tb;writing-mode:lr-tb;text-anchor:start;baseline-shift:baseline;color:#000000;fill:#1a1a1a;fill-opacity:1;fill-rule:nonzero;stroke:none;stroke-width:17.36865997;marker:none;visibility:visible;display:inline;overflow:visible;enable-background:accumulate;font-family:Sans;-inkscape-font-specification:Sans"
             inkscape:connector-curvature="0" />
          <path
             inkscape:connector-curvature="0"
             id="path3020"
             d="m -1111.1562,547.9375 c -1.1165,-0.0868 -2.2723,0.009 -3.4063,0.3125 -5.36,1.4362 -8.5924,7.01501 -7.1563,12.375 1.4363,5.35999 7.0151,8.59247 12.375,7.15625 0.2057,-0.055 0.4262,-0.12074 0.625,-0.1875 l -1.7812,-5.28125 c -0.09,0.0302 -0.1883,0.0689 -0.2812,0.0937 -2.4545,0.65768 -4.9048,-0.7641 -5.5626,-3.21875 -0.6576,-2.45467 0.7642,-4.9048 3.2188,-5.5625 1.0386,-0.27829 2.0614,-0.1715 2.9688,0.21875 l 2.1874,-5.125 c -1.0055,-0.43248 -2.071,-0.69445 -3.1874,-0.78125 z"
             style="font-size:medium;font-style:normal;font-variant:normal;font-weight:normal;font-stretch:normal;text-indent:0;text-align:start;text-decoration:none;line-height:normal;letter-spacing:normal;word-spacing:normal;text-transform:none;direction:ltr;block-progression:tb;writing-mode:lr-tb;text-anchor:start;baseline-shift:baseline;color:#000000;fill:#1a1a1a;fill-opacity:1;fill-rule:nonzero;stroke:none;stroke-width:5.56566095;marker:none;visibility:visible;display:inline;overflow:visible;enable-background:accumulate;font-family:Sans;-inkscape-font-specification:Sans" />
        </g>
      </g>
    </g>
  </g>
</svg>
